<?xml version="1.0" standalone="no"?>
<!DOCTYPE svg PUBLIC "-//W3C//DTD SVG 1.1//EN" "http://www.w3.org/Graphics/SVG/1.1/DTD/svg11.dtd">
<svg stroke-width="0.501" stroke-linejoin="bevel" fill-rule="evenodd" xmlns:xlink="http://www.w3.org/1999/xlink" xmlns="http://www.w3.org/2000/svg" version="1.1" overflow="visible" width="100%" height="100%" viewBox="0 0 85.04 76.536">
 <defs>
	</defs>
 <g id="Document" fill="none" stroke="black" font-family="Times New Roman" font-size="16" transform="scale(1 -1)">
  <g id="Spread" transform="translate(0 -76.536)">
   <g id="Layer 1">
    <path d="M 34.868,3.99 C 35.159,6.002 37.532,7.978 37.745,9.483 C 37.475,10.891 34.847,12.792 34.904,15.728 C 35.08,18.01 37.915,20.225 37.788,21.33 C 37.7,22.1 35.304,24.872 35.309,24.82 C 33.992,24.095 31.855,22.97 31.69,22.352 C 31.351,21.168 32.851,18.032 31.926,15.618 C 30.072,12.487 28.36,13.318 27.048,11.448 C 26.537,9.22 28.521,6.812 27.348,4.727 C 26.404,2.884 25.1,2.396 23.258,2.978 C 21.633,3.565 20.866,5.456 22.01,7.573 C 23.048,9.32 25.999,10.24 26.77,11.548 C 27.06,12.952 25.36,15.714 26.535,18.405 C 27.572,20.445 31.029,21.431 31.345,22.476 C 31.525,23.075 30.748,26.097 30.383,26.897 C 28.883,26.732 26.587,26.509 26.207,26.015 C 25.441,25.051 25.627,21.579 23.849,19.702 C 20.939,17.519 19.674,18.943 17.746,17.718 C 16.421,15.854 17.333,12.87 15.452,11.392 C 13.874,10.051 12.482,10.098 11.003,11.342 C 9.727,12.507 9.742,14.547 11.608,16.065 C 13.237,17.283 16.314,17.001 17.528,17.915 C 18.332,19.102 17.818,22.304 19.934,24.34 C 21.673,25.828 25.395,25.551 25.936,26.261 C 26.233,26.651 26.756,29.687 26.742,30.6 C 25.297,31.019 22.993,31.733 22.439,31.414 C 20.564,30.711 20.205,27.537 17.845,26.485 C 14.322,25.582 13.696,27.381 11.448,26.986 C 9.509,25.772 9.21,22.667 6.906,22.02 C 4.936,21.385 3.668,21.961 2.778,23.676 C 2.044,25.241 2.838,27.12 5.143,27.808 C 7.115,28.31 9.85,26.873 11.321,27.252 C 12.519,28.04 13.27,31.196 16.002,32.268 C 18.18,32.978 21.267,30.929 22.282,31.746 C 22.891,32.234 24.438,34.759 24.737,35.573 C 23.56,36.516 21.753,38.009 21.128,37.926 C 19.905,37.787 17.582,35.2 14.997,35.131 C 11.396,35.644 11.509,37.546 9.279,38.043 C 7.025,37.662 5.56,34.908 3.183,35.192 C 1.12,35.36 0.17,36.377 0.003,38.303 C -0.077,40.028 1.377,41.459 3.77,41.214 C 5.783,40.923 7.76,38.549 9.264,38.336 C 10.673,38.606 12.574,41.234 15.509,41.178 C 17.792,41.002 20.02,38.109 21.111,38.292 C 21.839,38.416 23.797,39.873 24.535,40.579 C 24.217,41.418 22.647,44.137 22.1,44.356 C 21.202,44.715 17.996,43.125 15.82,43.835 C 13.086,44.907 12.336,48.061 11.138,48.85 C 9.667,49.229 6.932,47.792 4.961,48.294 C 2.656,48.983 1.861,50.861 2.595,52.426 C 3.485,54.14 4.753,54.717 6.724,54.082 C 9.028,53.436 9.327,50.33 11.264,49.116 C 13.513,48.722 14.139,50.521 17.662,49.617 C 20.023,48.564 21.18,45.285 22.256,44.689 C 22.811,44.369 25.116,45.083 26.561,45.502 C 26.563,45.499 26.219,49.58 25.768,50.013 C 24.819,50.926 21.506,50.446 19.767,51.935 C 17.651,53.971 18.166,57.174 17.361,58.361 C 16.146,59.274 13.07,58.992 11.441,60.21 C 9.574,61.728 9.559,63.769 10.835,64.933 C 12.315,66.176 13.707,66.224 15.284,64.883 C 17.166,63.405 16.253,60.421 17.579,58.557 C 19.506,57.332 20.771,58.755 23.682,56.572 C 25.459,54.696 25.274,51.224 26.041,50.26 C 26.425,49.758 28.776,49.537 30.274,49.372 C 30.643,50.198 31.557,53.006 31.218,53.754 C 30.662,54.982 27.445,55.784 26.408,57.826 C 25.233,60.517 26.934,63.279 26.643,64.683 C 25.872,65.991 22.922,66.909 21.883,68.658 C 20.741,70.774 21.506,72.665 23.132,73.252 C 24.973,73.835 26.277,73.346 27.222,71.504 C 28.394,69.418 26.41,67.01 26.921,64.781 C 28.233,62.912 29.947,63.742 31.8,60.612 C 32.724,58.199 31.224,55.063 31.564,53.878 C 31.728,53.266 33.823,52.157 35.143,51.431 C 35.754,51.978 37.88,54.096 37.788,55.207 C 37.685,56.458 35.08,58.526 34.904,60.809 C 34.847,63.744 37.475,65.645 37.745,67.054 C 37.532,68.558 35.159,70.535 34.868,72.548 C 34.621,74.941 36.053,76.395 37.779,76.315 C 39.704,76.148 40.722,75.198 40.889,73.135 C 41.174,70.758 38.42,69.293 38.039,67.039 C 38.535,64.809 40.436,64.922 40.951,61.321 C 40.881,58.736 38.295,56.413 38.156,55.19 C 38.072,54.555 39.615,52.698 40.554,51.524 C 40.857,51.544 43.686,52.625 44.27,53.683 C 44.891,54.806 43.039,57.786 43.749,59.963 C 44.82,62.696 47.976,63.447 48.764,64.645 C 49.143,66.115 47.705,68.851 48.208,70.821 C 48.897,73.127 50.775,73.922 52.339,73.188 C 54.055,72.297 54.631,71.029 53.996,69.06 C 53.35,66.756 50.244,66.456 49.03,64.518 C 48.635,62.269 50.434,61.644 49.532,58.121 C 48.478,55.76 45.2,54.603 44.603,53.526 C 44.291,52.987 44.959,50.791 45.382,49.342 C 46.269,49.312 49.032,49.482 49.82,50.146 C 50.613,50.814 50.253,54.409 51.742,56.148 C 53.778,58.262 56.98,57.748 58.166,58.554 C 59.08,59.768 58.799,62.844 60.017,64.473 C 61.535,66.339 63.575,66.356 64.74,65.078 C 65.983,63.599 66.03,62.207 64.69,60.631 C 63.211,58.748 60.227,59.66 58.364,58.335 C 57.139,56.409 58.562,55.142 56.379,52.232 C 54.503,50.456 51.031,50.641 50.068,49.874 C 49.559,49.485 49.338,47.082 49.172,45.587 C 50.033,45.215 52.684,44.352 53.49,44.672 C 54.626,45.125 55.519,48.445 57.561,49.481 C 60.251,50.656 63.014,48.956 64.418,49.247 C 65.726,50.017 66.644,52.967 68.393,54.007 C 70.509,55.15 72.4,54.384 72.988,52.759 C 73.57,50.915 73.081,49.612 71.239,48.667 C 69.153,47.494 66.745,49.479 64.516,48.968 C 62.647,47.657 63.479,45.943 60.347,44.09 C 57.934,43.166 54.798,44.665 53.613,44.326 C 53.014,44.166 51.939,42.153 51.212,40.831 C 51.843,40.169 53.639,38.411 54.89,38.292 C 56.077,38.181 58.209,41.002 60.491,41.178 C 63.426,41.234 65.328,38.606 66.737,38.336 C 68.24,38.549 70.217,40.923 72.23,41.214 C 74.623,41.459 76.078,40.028 75.997,38.303 C 75.831,36.377 74.88,35.36 72.817,35.192 C 70.441,34.908 68.975,37.662 66.721,38.043 C 64.492,37.546 64.603,35.644 61.003,35.131 C 58.419,35.2 56.096,37.787 54.871,37.926 C 54.237,38.009 51.206,35.527 51.055,35.357 C 51.779,34.04 52.904,31.903 53.522,31.738 C 54.706,31.399 57.842,32.899 60.256,31.975 C 63.386,30.121 62.556,28.407 64.425,27.096 C 66.654,26.585 69.062,28.57 71.148,27.397 C 72.99,26.452 73.478,25.149 72.895,23.305 C 72.309,21.68 70.418,20.914 68.301,22.058 C 66.553,23.097 65.635,26.045 64.326,26.818 C 62.923,27.108 60.16,25.408 57.469,26.583 C 55.429,27.62 54.734,31.21 53.397,31.392 C 52.238,31.55 49.956,30.854 49.089,30.481 C 49.254,28.981 49.477,26.709 49.97,26.331 C 50.934,25.564 54.405,25.751 56.282,23.973 C 58.464,21.063 57.04,19.798 58.267,17.87 C 60.129,16.545 63.114,17.457 64.593,15.574 C 65.933,13.998 65.886,12.606 64.641,11.127 C 63.478,9.85 61.438,9.865 59.92,11.732 C 58.702,13.36 58.982,16.437 58.069,17.651 C 56.883,18.457 53.681,17.942 51.644,20.058 C 50.156,21.797 50.551,25.514 49.723,26.059 C 48.955,26.563 46.216,26.889 45.312,26.863 C 44.892,25.416 44.198,23.16 44.514,22.612 C 45.112,21.536 48.39,20.379 49.442,18.018 C 50.345,14.495 48.547,13.87 48.941,11.62 C 50.156,9.683 53.261,9.384 53.907,7.079 C 54.542,5.109 53.966,3.842 52.251,2.951 C 50.687,2.217 48.808,3.012 48.119,5.317 C 47.617,7.288 49.054,10.024 48.675,11.493 C 47.888,12.692 44.731,13.442 43.659,16.176 C 42.95,18.352 44.695,21.438 44.181,22.456 C 43.812,23.191 41.303,24.543 40.444,24.876 C 39.499,23.699 38.074,21.958 38.156,21.347 C 38.295,20.124 40.881,17.801 40.951,15.216 C 40.436,11.615 38.535,11.728 38.039,9.497 C 38.42,7.244 41.174,5.779 40.889,3.402 C 40.722,1.339 39.704,0.389 37.779,0.222 C 36.053,0.142 34.621,1.596 34.868,3.99 Z M 77.323,7.492 C 75.293,9.71 75.867,12.115 73.96,15.126 C 77.072,13.927 80.686,15.948 84.082,12.677 C 85.183,11.402 85.469,8.871 84.225,7.277 C 80.884,4.216 78.494,6.41 77.323,7.492 Z M 48.109,33.107 C 48.176,33.221 48.234,33.342 48.273,33.441 C 48.426,33.78 48.561,34.131 48.68,34.492 C 50.654,40.481 47.397,46.945 41.407,48.92 C 41.054,49.036 40.699,49.135 40.344,49.212 C 40.212,49.245 40.08,49.273 39.99,49.278 C 39.741,49.338 39.491,49.378 39.274,49.399 C 39.114,49.425 38.953,49.442 38.857,49.439 C 38.623,49.472 38.39,49.485 38.205,49.483 C 38.034,49.496 37.864,49.497 37.771,49.487 C 37.594,49.496 37.366,49.489 37.14,49.467 C 37.044,49.471 36.875,49.458 36.708,49.433 C 36.529,49.424 36.303,49.396 36.081,49.351 C 35.984,49.346 35.826,49.319 35.669,49.283 C 35.613,49.279 35.481,49.251 35.35,49.209 C 34.775,49.094 34.213,48.921 33.669,48.707 C 33.669,48.708 33.649,48.7 33.63,48.69 C 33.089,48.478 32.565,48.224 32.068,47.919 C 32.055,47.927 31.961,47.871 31.871,47.808 C 31.39,47.522 30.929,47.191 30.499,46.817 C 30.486,46.823 30.371,46.726 30.267,46.617 C 29.842,46.259 29.444,45.853 29.084,45.409 C 28.928,45.24 28.768,45.038 28.639,44.861 C 28.378,44.506 28.155,44.164 27.954,43.809 L 27.947,43.809 C 27.971,43.848 27.994,43.884 28.015,43.907 C 27.992,43.877 27.97,43.844 27.954,43.809 C 27.934,43.781 27.918,43.752 27.901,43.722 C 27.531,43.076 27.222,42.382 26.98,41.648 C 25.005,35.659 28.263,29.195 34.253,27.22 C 39.758,25.403 45.669,28.012 48.109,33.107 Z M 27.947,43.809 L 27.954,43.809 C 27.936,43.786 27.922,43.76 27.908,43.735 C 27.921,43.76 27.934,43.786 27.947,43.809 Z" fill="#027e0b" stroke-linejoin="miter" stroke="none" marker-start="none" marker-end="none"/>
   </g>
  </g>
 </g>
</svg>
